# xmcd
#
# Track frame offsets:
#	150
#	17052
#	32400
#	55944
#	86983
#	117908
#	153616
#
# Disc length: 2376 seconds
# Revision: 0
# Processed by: cddbd v1.5.2PL0 Copyright (c) Steve Scherf et al.
# Submitted via: dBpowerAMP V12.0
#
DISCID=53094607
DTITLE=Chanté Moore - Straight Up
DYEAR=2001
DGENRE=R&B
TTITLE0=Straight Up (Radio Edit)
TTITLE1=Straight Up (B.R.L. Hot Radio Remix)
TTITLE2=Straight Up (B.R.L. Hot Club Remix)
TTITLE3=Straight Up (Wackside Tweaker Mix)
TTITLE4=Straight Up (Wackside Tweaker Dub)
TTITLE5=Straight Up (Junior Vasquez Remix)
TTITLE6=Straight Up (Sunship Main Mix)
EXTD=
EXTT0=
EXTT1=
EXTT2=
EXTT3=
EXTT4=
EXTT5=
EXTT6=
PLAYORDER=
